<svg xmlns="http://www.w3.org/2000/svg" viewBox="0 0 100 80" width="100" height="80" role="img" aria-label="Lotus">
  
  <g transform="translate(50,62)" fill="currentColor">
    <path d="M0 0 C-7 -14 -7 -32 0 -46 C7 -32 7 -14 0 0 Z" transform="rotate(-56) scale(0.8)"></path>
    <path d="M0 0 C-7 -14 -7 -32 0 -46 C7 -32 7 -14 0 0 Z" transform="rotate(-32) scale(0.92)"></path>
    <path d="M0 0 C-7 -14 -7 -32 0 -46 C7 -32 7 -14 0 0 Z" transform="rotate(-14) scale(0.98)"></path>
    <path d="M0 0 C-7 -14 -7 -32 0 -46 C7 -32 7 -14 0 0 Z"></path>
    <path d="M0 0 C-7 -14 -7 -32 0 -46 C7 -32 7 -14 0 0 Z" transform="rotate(14) scale(0.98)"></path>
    <path d="M0 0 C-7 -14 -7 -32 0 -46 C7 -32 7 -14 0 0 Z" transform="rotate(32) scale(0.92)"></path>
    <path d="M0 0 C-7 -14 -7 -32 0 -46 C7 -32 7 -14 0 0 Z" transform="rotate(56) scale(0.8)"></path>
  </g>
</svg>