<svg xmlns="http://www.w3.org/2000/svg" viewBox="0 0 440 80" width="440" height="80" role="img" aria-label="LOTUS">
  <g transform="translate(50,62)" fill="#6d55c9">
    <path d="M0 0 C-7 -14 -7 -32 0 -46 C7 -32 7 -14 0 0 Z" transform="rotate(-62) scale(0.8)" opacity="0.34"></path>
    <path d="M0 0 C-7 -14 -7 -32 0 -46 C7 -32 7 -14 0 0 Z" transform="rotate(-38) scale(0.92)" opacity="0.56"></path>
    <path d="M0 0 C-7 -14 -7 -32 0 -46 C7 -32 7 -14 0 0 Z" transform="rotate(-18) scale(0.98)" opacity="0.8"></path>
    <path d="M0 0 C-7 -14 -7 -32 0 -46 C7 -32 7 -14 0 0 Z" opacity="1"></path>
    <path d="M0 0 C-7 -14 -7 -32 0 -46 C7 -32 7 -14 0 0 Z" transform="rotate(18) scale(0.98)" opacity="0.8"></path>
    <path d="M0 0 C-7 -14 -7 -32 0 -46 C7 -32 7 -14 0 0 Z" transform="rotate(38) scale(0.92)" opacity="0.56"></path>
    <path d="M0 0 C-7 -14 -7 -32 0 -46 C7 -32 7 -14 0 0 Z" transform="rotate(62) scale(0.8)" opacity="0.34"></path>
  </g>
  <path d="M28 62 Q50 73 72 62" fill="none" stroke="#6d55c9" stroke-width="2" opacity="0.4"></path>
  <text x="120" y="52" font-family="&#39;Space Mono&#39;, monospace" font-weight="700" font-size="34" letter-spacing="7" fill="#1c1e24">LOTUS</text>
</svg>